<?xml version="1.0" encoding="utf-8"?>
<!-- Generator: Adobe Illustrator 19.2.0, SVG Export Plug-In . SVG Version: 6.00 Build 0)  -->
<svg version="1.1" id="Capa_1" xmlns="http://www.w3.org/2000/svg" xmlns:xlink="http://www.w3.org/1999/xlink" x="0px" y="0px"
	 viewBox="0 0 60 60" style="enable-background:new 0 0 60 60;" xml:space="preserve">
<style type="text/css">
	.st0{fill:#5B3922;}
	.st1{fill:#52AC62;}
	.st2{fill:#805333;}
</style>
<g>
	<path class="st0" d="M33,3h-2V1c0-0.6-0.4-1-1-1s-1,0.4-1,1v2h-2c-0.6,0-1,0.4-1,1s0.4,1,1,1h2v5c0,0.6,0.4,1,1,1s1-0.4,1-1V5h2
		c0.6,0,1-0.4,1-1S33.6,3,33,3z"/>
	<polygon class="st1" points="47,41 14,41 25,26 35,26 	"/>
	<rect x="26" y="18" class="st0" width="8" height="8"/>
	<polygon class="st1" points="36,18 24,18 28,10 32,10 	"/>
	<path class="st0" d="M17,41v18h9v-7.5c0-2.5,2-4.5,4.5-4.5s4.5,2,4.5,4.5V59h9V41H17z"/>
	<rect x="27" y="31" class="st0" width="6" height="5"/>
	<path class="st2" d="M52,60H8c-0.6,0-1-0.4-1-1s0.4-1,1-1h44c0.6,0,1,0.4,1,1S52.6,60,52,60z"/>
</g>
</svg>
