<?xml version="1.0" encoding="iso-8859-1"?>
<!-- Generator: Adobe Illustrator 19.0.0, SVG Export Plug-In . SVG Version: 6.00 Build 0)  -->
<svg version="1.1" id="Layer_1" xmlns="http://www.w3.org/2000/svg" xmlns:xlink="http://www.w3.org/1999/xlink" x="0px" y="0px"
	 viewBox="0 0 512.001 512.001" style="enable-background:new 0 0 512.001 512.001;" xml:space="preserve">
<path style="fill:#D68231;" d="M168.914,189.004c0,6.325-5.175,11.501-11.501,11.501h-82.23c-6.325,0-11.501-5.175-11.501-11.501
	V70.165c0-6.325,5.175-11.501,11.501-11.501h82.23c6.325,0,11.501,5.175,11.501,11.501V189.004z"/>
<rect x="63.68" y="78.422" style="opacity:0.1;enable-background:new    ;" width="60.691" height="29.206"/>
<rect x="108.222" y="123.482" style="opacity:0.1;enable-background:new    ;" width="60.691" height="29.206"/>
<polygon style="fill:#D1D3D3;" points="42.577,196.845 42.577,435.104 469.431,435.104 469.431,196.845 256.002,63.648 "/>
<polygon style="opacity:0.1;enable-background:new    ;" points="256.002,63.648 42.577,196.845 42.577,245.148 256.002,111.951 
	469.431,245.148 469.431,196.845 "/>
<rect x="408.736" y="243.032" style="opacity:0.1;enable-background:new    ;" width="60.692" height="29.206"/>
<rect x="325.701" y="375.578" style="opacity:0.1;enable-background:new    ;" width="60.692" height="29.206"/>
<rect x="250.808" y="242.561" style="opacity:0.1;enable-background:new    ;" width="60.692" height="29.206"/>
<rect x="42.576" y="313.831" style="opacity:0.1;enable-background:new    ;" width="60.691" height="29.206"/>
<rect x="90.246" y="209.243" style="opacity:0.1;enable-background:new    ;" width="60.692" height="29.206"/>
<rect x="203.874" y="291.703" style="fill:#D68231;" width="104.243" height="143.403"/>
<g>
	<circle style="fill:#FFFFFF;" cx="255.995" cy="343.111" r="20.418"/>
	<circle style="fill:#FFFFFF;" cx="255.995" cy="170.393" r="43.42"/>
</g>
<path style="opacity:0.2;enable-background:new    ;" d="M255.997,126.974c-23.981,0-43.421,19.439-43.421,43.42
	c0,2.619,0.245,5.178,0.689,7.666c3.623-20.322,21.37-35.751,42.732-35.751c21.364,0,39.109,15.429,42.731,35.751
	c0.444-2.489,0.689-5.048,0.689-7.666C299.417,146.413,279.978,126.974,255.997,126.974z"/>
<polygon style="fill:#D68231;" points="299.416,161.768 264.622,161.768 264.622,126.974 247.37,126.974 247.37,161.768 
	212.576,161.768 212.576,179.019 247.37,179.019 247.37,213.813 264.622,213.813 264.622,179.019 299.416,179.019 "/>
<path style="fill:#FFB819;" d="M255.997,222.439c-28.699,0-52.047-23.348-52.047-52.045s23.348-52.045,52.047-52.045
	c28.698,0,52.045,23.348,52.045,52.045S284.695,222.439,255.997,222.439z M255.997,135.599c-19.187,0-34.795,15.609-34.795,34.794
	s15.609,34.794,34.795,34.794c19.186,0,34.794-15.609,34.794-34.794S275.183,135.599,255.997,135.599z"/>
<rect x="203.874" y="291.703" style="opacity:0.1;enable-background:new    ;" width="104.243" height="18.125"/>
<rect x="80.183" y="257.466" style="fill:#FFFFFF;" width="74.591" height="84.3"/>
<rect x="80.183" y="257.466" style="opacity:0.2;enable-background:new    ;" width="74.591" height="18.585"/>
<rect x="80.183" y="290.99" style="fill:#D68231;" width="74.591" height="17.251"/>
<rect x="80.183" y="257.466" style="fill:none;stroke:#FFB819;stroke-width:15;stroke-linejoin:round;stroke-miterlimit:10;" width="74.591" height="84.3"/>
<rect x="357.236" y="257.466" style="fill:#FFFFFF;" width="74.591" height="84.3"/>
<rect x="357.236" y="257.466" style="opacity:0.2;enable-background:new    ;" width="74.591" height="18.585"/>
<rect x="357.236" y="290.99" style="fill:#D68231;" width="74.591" height="17.251"/>
<path style="fill:#FFB819;" d="M431.827,350.393h-74.591c-4.764,0-8.626-3.861-8.626-8.626v-84.302c0-4.765,3.862-8.626,8.626-8.626
	h74.591c4.764,0,8.626,3.861,8.626,8.626v84.302C440.453,346.531,436.591,350.393,431.827,350.393z M365.86,333.141h57.34v-67.05
	h-57.34V333.141z"/>
<path style="fill:#00AD68;" d="M512,461.077c0,3.122-2.553,5.674-5.673,5.674H5.673c-3.12,0-5.673-2.552-5.673-5.674v-20.301
	c0-3.12,2.553-5.672,5.673-5.672h500.655c3.12,0,5.673,2.552,5.673,5.672v20.301H512z"/>
<rect x="171.039" y="435.106" style="fill:#333E48;" width="169.9" height="31.648"/>
<path style="fill:#FFB819;" d="M489.706,227.645c-3.323,0-6.684-0.898-9.712-2.785L256.002,85.327L32.009,224.86
	c-8.626,5.377-19.974,2.737-25.348-5.888s-2.736-19.974,5.89-25.349L246.272,48.03c5.956-3.71,13.503-3.71,19.459,0l233.723,145.594
	c8.626,5.374,11.263,16.723,5.89,25.349C501.855,224.57,495.848,227.645,489.706,227.645z"/>
<g>
	<path style="fill:#218649;" d="M494.323,435.104c0-37.74-30.594-68.333-68.333-68.333s-68.334,30.594-68.334,68.333H494.323z"/>
	<path style="fill:#218649;" d="M17.67,435.104c0-37.74,30.594-68.333,68.334-68.333s68.333,30.594,68.333,68.333H17.67z"/>
</g>
<g>
</g>
<g>
</g>
<g>
</g>
<g>
</g>
<g>
</g>
<g>
</g>
<g>
</g>
<g>
</g>
<g>
</g>
<g>
</g>
<g>
</g>
<g>
</g>
<g>
</g>
<g>
</g>
<g>
</g>
</svg>
