<?xml version="1.0" encoding="iso-8859-1"?>
<!-- Generator: Adobe Illustrator 19.0.0, SVG Export Plug-In . SVG Version: 6.00 Build 0)  -->
<svg version="1.1" id="Capa_1" xmlns="http://www.w3.org/2000/svg" xmlns:xlink="http://www.w3.org/1999/xlink" x="0px" y="0px"
	 viewBox="0 0 59 59" style="enable-background:new 0 0 59 59;" xml:space="preserve">
<path style="fill:#CBB292;" d="M33.5,4h-3V1c0-0.552-0.448-1-1-1s-1,0.448-1,1v3h-3c-0.552,0-1,0.448-1,1s0.448,1,1,1h3v5
	c0,0.552,0.448,1,1,1s1-0.448,1-1V6h3c0.552,0,1-0.448,1-1S34.052,4,33.5,4z"/>
<polygon style="fill:#ECF0F1;" points="50.5,59 8.5,59 8.5,48 16.5,39 42.5,39 50.5,48 "/>
<rect x="16.5" y="29" style="fill:#ECF0F1;" width="26" height="10"/>
<polygon style="fill:#E4C05C;" points="43.5,29 15.5,29 23.5,22 35.5,22 "/>
<polygon style="fill:#E4C05C;" points="34.5,16 24.5,16 29.5,9 "/>
<rect x="25.5" y="16" style="fill:#ECF0F1;" width="8" height="6"/>
<path style="fill:#4482C3;" d="M21.5,59v-7.5c0-2.475-2.025-4.5-4.5-4.5s-4.5,2.025-4.5,4.5V59H21.5z"/>
<path style="fill:#4482C3;" d="M42,47c-2.475,0-4.5,2.025-4.5,4.5V59h9v-7.5C46.5,49.025,44.475,47,42,47z"/>
<path style="fill:#556080;" d="M33.5,59V48c0-2.2-1.8-4-4-4s-4,1.8-4,4v11H33.5z"/>
<path style="fill:#0096E6;" d="M24.5,32c-1.65,0-3,1.35-3,3v4h6v-4C27.5,33.35,26.15,32,24.5,32z"/>
<path style="fill:#0096E6;" d="M34.5,32c-1.65,0-3,1.35-3,3v4h6v-4C37.5,33.35,36.15,32,34.5,32z"/>
<g>
</g>
<g>
</g>
<g>
</g>
<g>
</g>
<g>
</g>
<g>
</g>
<g>
</g>
<g>
</g>
<g>
</g>
<g>
</g>
<g>
</g>
<g>
</g>
<g>
</g>
<g>
</g>
<g>
</g>
</svg>
